<mxfile host="drawio-plugin" modified="2025-05-15T05:32:58.121Z" agent="Mozilla/5.0 (Macintosh; Intel Mac OS X 10_15_7) AppleWebKit/537.36 (KHTML, like Gecko) Chrome/122.0.0.0 Safari/537.36" etag="LqsEYr1sJcUO2FFFtKPx" version="22.1.22" type="embed">
  <diagram name="OpenTelemetry Docker Architecture" id="otel-arch">
    <mxGraphModel dx="3167" dy="2590" grid="1" gridSize="10" guides="1" tooltips="1" connect="1" arrows="1" fold="1" page="1" pageScale="1" pageWidth="827" pageHeight="1169" math="0" shadow="0">
      <root>
        <mxCell id="0" />
        <mxCell id="1" parent="0" />
        <mxCell id="151" value="" style="rounded=1;whiteSpace=wrap;html=1;strokeColor=#808080;strokeWidth=2;glass=0;shadow=0;" vertex="1" parent="1">
          <mxGeometry x="40" y="40" width="1560" height="1080" as="geometry" />
        </mxCell>
        <mxCell id="152" value="" style="rounded=1;whiteSpace=wrap;html=1;labelPosition=center;verticalLabelPosition=middle;align=center;verticalAlign=middle;gradientColor=none;strokeColor=#00CC00;strokeWidth=2;" vertex="1" parent="1">
          <mxGeometry x="320" y="120" width="200" height="120" as="geometry" />
        </mxCell>
        <mxCell id="153" value="&lt;div style=&quot;&quot;&gt;&lt;b style=&quot;background-color: transparent; color: light-dark(rgb(0, 0, 0), rgb(255, 255, 255));&quot;&gt;&lt;font style=&quot;font-size: 18px;&quot;&gt;Open telemetry collector&lt;/font&gt;&lt;/b&gt;&lt;/div&gt;&lt;blockquote style=&quot;margin: 0 0 0 40px; border: none; padding: 0px;&quot;&gt;&lt;blockquote style=&quot;margin: 0 0 0 40px; border: none; padding: 0px;&quot;&gt;&lt;blockquote style=&quot;margin: 0 0 0 40px; border: none; padding: 0px;&quot;&gt;&lt;b&gt;&lt;div style=&quot;text-align: left;&quot;&gt;&lt;font style=&quot;font-size: 15px;&quot;&gt;&lt;span style=&quot;background-color: transparent; color: light-dark(rgb(0, 0, 0), rgb(255, 255, 255)); font-weight: normal;&quot;&gt;port:&amp;nbsp;&lt;/span&gt;&lt;span style=&quot;background-color: transparent; color: light-dark(rgb(0, 0, 0), rgb(255, 255, 255));&quot;&gt;4317&lt;/span&gt;&lt;/font&gt;&lt;/div&gt;&lt;/b&gt;&lt;/blockquote&gt;&lt;/blockquote&gt;&lt;blockquote style=&quot;margin: 0 0 0 40px; border: none; padding: 0px;&quot;&gt;&lt;blockquote style=&quot;margin: 0 0 0 40px; border: none; padding: 0px;&quot;&gt;&lt;div style=&quot;text-align: left;&quot;&gt;&lt;span style=&quot;background-color: transparent; color: light-dark(rgb(0, 0, 0), rgb(255, 255, 255));&quot;&gt;&lt;font style=&quot;font-size: 15px;&quot;&gt;port:&amp;nbsp;&lt;b style=&quot;&quot;&gt;8889&lt;/b&gt;&lt;/font&gt;&lt;/span&gt;&lt;/div&gt;&lt;/blockquote&gt;&lt;/blockquote&gt;&lt;/blockquote&gt;" style="rounded=1;whiteSpace=wrap;html=1;strokeColor=#A680B8;strokeWidth=2;" vertex="1" parent="1">
          <mxGeometry x="560" y="480" width="240" height="100" as="geometry" />
        </mxCell>
        <mxCell id="154" value="&lt;div style=&quot;&quot;&gt;&lt;b style=&quot;background-color: transparent; color: light-dark(rgb(0, 0, 0), rgb(255, 255, 255));&quot;&gt;&lt;font style=&quot;font-size: 18px;&quot;&gt;&lt;strike&gt;Zipkin&lt;/strike&gt;&lt;/font&gt;&lt;/b&gt;&lt;/div&gt;&lt;blockquote style=&quot;margin: 0 0 0 40px; border: none; padding: 0px;&quot;&gt;&lt;blockquote style=&quot;margin: 0 0 0 40px; border: none; padding: 0px;&quot;&gt;&lt;blockquote style=&quot;margin: 0 0 0 40px; border: none; padding: 0px;&quot;&gt;&lt;div&gt;&lt;span style=&quot;font-size: 18px;&quot;&gt;&lt;b style=&quot;&quot;&gt;&lt;div style=&quot;&quot;&gt;&lt;span style=&quot;font-size: 14px; background-color: transparent; color: light-dark(rgb(0, 0, 0), rgb(255, 255, 255)); font-weight: normal;&quot;&gt;port&lt;/span&gt;&lt;span style=&quot;font-size: 14px; background-color: transparent; color: light-dark(rgb(0, 0, 0), rgb(255, 255, 255)); font-weight: normal;&quot;&gt;: &lt;/span&gt;&lt;b style=&quot;font-size: 14px; background-color: transparent; color: light-dark(rgb(0, 0, 0), rgb(255, 255, 255));&quot;&gt;9411&lt;/b&gt;&lt;/div&gt;&lt;/b&gt;&lt;/span&gt;&lt;/div&gt;&lt;/blockquote&gt;&lt;/blockquote&gt;&lt;/blockquote&gt;" style="rounded=1;whiteSpace=wrap;html=1;align=center;" vertex="1" parent="1">
          <mxGeometry x="920" y="480" width="240" height="100" as="geometry" />
        </mxCell>
        <mxCell id="155" value="&lt;b&gt;&lt;font style=&quot;font-size: 18px;&quot;&gt;&lt;strike style=&quot;&quot;&gt;Jaeger&lt;/strike&gt;&lt;/font&gt;&lt;/b&gt;&lt;div&gt;&lt;blockquote style=&quot;margin: 0 0 0 40px; border: none; padding: 0px;&quot;&gt;&lt;blockquote style=&quot;margin: 0 0 0 40px; border: none; padding: 0px;&quot;&gt;&lt;blockquote style=&quot;margin: 0 0 0 40px; border: none; padding: 0px;&quot;&gt;&lt;div&gt;&lt;font style=&quot;font-size: 14px;&quot;&gt;port: &lt;b&gt;16686&lt;/b&gt;&lt;/font&gt;&lt;/div&gt;&lt;/blockquote&gt;&lt;/blockquote&gt;&lt;blockquote style=&quot;margin: 0 0 0 40px; border: none; padding: 0px;&quot;&gt;&lt;blockquote style=&quot;margin: 0 0 0 40px; border: none; padding: 0px;&quot;&gt;&lt;div&gt;&lt;font style=&quot;font-size: 14px;&quot;&gt;port: &lt;b&gt;4317&lt;/b&gt;&lt;/font&gt;&lt;/div&gt;&lt;/blockquote&gt;&lt;/blockquote&gt;&lt;/blockquote&gt;&lt;/div&gt;" style="rounded=1;whiteSpace=wrap;html=1;" vertex="1" parent="1">
          <mxGeometry x="920" y="600" width="240" height="100" as="geometry" />
        </mxCell>
        <mxCell id="156" value="&lt;b&gt;&lt;font style=&quot;font-size: 18px;&quot;&gt;Tempo&lt;/font&gt;&lt;/b&gt;&lt;div&gt;&lt;blockquote style=&quot;margin: 0 0 0 40px; border: none; padding: 0px;&quot;&gt;&lt;blockquote style=&quot;margin: 0 0 0 40px; border: none; padding: 0px;&quot;&gt;&lt;blockquote style=&quot;margin: 0 0 0 40px; border: none; padding: 0px;&quot;&gt;&lt;div&gt;&lt;font style=&quot;font-size: 14px;&quot;&gt;port&lt;/font&gt;&lt;font style=&quot;&quot;&gt;&lt;span style=&quot;font-size: 14px;&quot;&gt;: &lt;/span&gt;&lt;span style=&quot;font-weight: bold; font-size: 14px;&quot;&gt;3200&lt;/span&gt;&lt;br&gt;&lt;/font&gt;&lt;/div&gt;&lt;/blockquote&gt;&lt;/blockquote&gt;&lt;/blockquote&gt;&lt;div&gt;&lt;font style=&quot;&quot;&gt;&lt;br&gt;&lt;font style=&quot;font-size: 13px;&quot;&gt;&lt;b&gt;&lt;span style=&quot;font-size: 12px;&quot;&gt;collector&lt;/span&gt;&amp;nbsp;pushes trace data to tempo&lt;/b&gt;&lt;/font&gt;&lt;/font&gt;&lt;/div&gt;&lt;/div&gt;" style="rounded=1;whiteSpace=wrap;html=1;strokeColor=#FFD966;strokeWidth=2;" vertex="1" parent="1">
          <mxGeometry x="920" y="840" width="240" height="100" as="geometry" />
        </mxCell>
        <mxCell id="157" value="&lt;b&gt;&lt;font style=&quot;font-size: 18px;&quot;&gt;Prometheus&lt;/font&gt;&lt;/b&gt;&lt;div&gt;&lt;blockquote style=&quot;margin: 0 0 0 40px; border: none; padding: 0px;&quot;&gt;&lt;blockquote style=&quot;margin: 0 0 0 40px; border: none; padding: 0px;&quot;&gt;&lt;blockquote style=&quot;margin: 0 0 0 40px; border: none; padding: 0px;&quot;&gt;&lt;div&gt;&lt;div&gt;&lt;font style=&quot;font-size: 14px;&quot;&gt;port: &lt;b style=&quot;&quot;&gt;9090&lt;/b&gt;&lt;/font&gt;&lt;/div&gt;&lt;/div&gt;&lt;/blockquote&gt;&lt;/blockquote&gt;&lt;/blockquote&gt;&lt;div&gt;&lt;div&gt;&lt;br&gt;&lt;font style=&quot;font-size: 14px;&quot;&gt;&lt;b style=&quot;&quot;&gt;Scrape metrics from otel agent&lt;/b&gt;&lt;/font&gt;&lt;/div&gt;&lt;/div&gt;&lt;/div&gt;" style="rounded=1;whiteSpace=wrap;html=1;strokeColor=#FF0000;strokeWidth=2;" vertex="1" parent="1">
          <mxGeometry x="920" y="720" width="240" height="100" as="geometry" />
        </mxCell>
        <mxCell id="158" value="&lt;font style=&quot;font-weight: bold; font-size: 18px;&quot;&gt;Loki&lt;/font&gt;&lt;div&gt;&lt;blockquote style=&quot;margin: 0 0 0 40px; border: none; padding: 0px;&quot;&gt;&lt;blockquote style=&quot;margin: 0 0 0 40px; border: none; padding: 0px;&quot;&gt;&lt;blockquote style=&quot;margin: 0 0 0 40px; border: none; padding: 0px;&quot;&gt;&lt;div&gt;&lt;font style=&quot;font-size: 14px;&quot;&gt;port: &lt;b style=&quot;&quot;&gt;3100&lt;/b&gt;&lt;/font&gt;&lt;/div&gt;&lt;/blockquote&gt;&lt;/blockquote&gt;&lt;/blockquote&gt;&lt;div&gt;&lt;font style=&quot;font-size: 14px;&quot;&gt;&lt;b&gt;&lt;br&gt;&lt;/b&gt;&lt;/font&gt;&lt;b&gt;&lt;font style=&quot;font-size: 14px;&quot;&gt;collector&lt;/font&gt; pushes log data to loki&lt;/b&gt;&lt;/div&gt;&lt;/div&gt;" style="rounded=1;whiteSpace=wrap;html=1;strokeColor=#FFD966;strokeWidth=2;" vertex="1" parent="1">
          <mxGeometry x="920" y="960" width="240" height="100" as="geometry" />
        </mxCell>
        <mxCell id="159" style="endArrow=block;edgeStyle=orthogonalEdgeStyle;entryX=0;entryY=0.5;entryDx=0;entryDy=0;exitX=1;exitY=0.5;exitDx=0;exitDy=0;dashed=1;strokeWidth=2;strokeColor=#808080;" edge="1" parent="1" source="153" target="155">
          <mxGeometry relative="1" as="geometry">
            <mxPoint x="700" y="625" as="sourcePoint" />
          </mxGeometry>
        </mxCell>
        <mxCell id="160" style="endArrow=block;entryX=0;entryY=0.5;entryDx=0;entryDy=0;exitX=1;exitY=0.5;exitDx=0;exitDy=0;edgeStyle=orthogonalEdgeStyle;dashed=1;strokeWidth=2;strokeColor=#808080;" edge="1" parent="1" source="153" target="156">
          <mxGeometry relative="1" as="geometry">
            <mxPoint x="700" y="625" as="sourcePoint" />
          </mxGeometry>
        </mxCell>
        <mxCell id="161" style="endArrow=block;exitX=1;exitY=0.5;exitDx=0;exitDy=0;entryX=0;entryY=0.5;entryDx=0;entryDy=0;edgeStyle=orthogonalEdgeStyle;dashed=1;strokeWidth=2;strokeColor=#808080;" edge="1" parent="1" source="153" target="157">
          <mxGeometry relative="1" as="geometry">
            <mxPoint x="700" y="625" as="sourcePoint" />
          </mxGeometry>
        </mxCell>
        <mxCell id="162" style="endArrow=block;exitX=1;exitY=0.5;exitDx=0;exitDy=0;entryX=0;entryY=0.5;entryDx=0;entryDy=0;edgeStyle=orthogonalEdgeStyle;dashed=1;strokeWidth=2;strokeColor=#808080;" edge="1" parent="1" source="153" target="158">
          <mxGeometry relative="1" as="geometry">
            <mxPoint x="700" y="625" as="sourcePoint" />
          </mxGeometry>
        </mxCell>
        <mxCell id="163" style="endArrow=block;edgeStyle=orthogonalEdgeStyle;entryX=0;entryY=0.5;entryDx=0;entryDy=0;dashed=1;strokeWidth=2;strokeColor=#808080;" edge="1" parent="1" source="154" target="186">
          <mxGeometry relative="1" as="geometry">
            <mxPoint x="1280" y="770" as="targetPoint" />
          </mxGeometry>
        </mxCell>
        <mxCell id="164" style="endArrow=block;edgeStyle=orthogonalEdgeStyle;entryX=0;entryY=0.5;entryDx=0;entryDy=0;dashed=1;strokeWidth=2;strokeColor=#808080;" edge="1" parent="1" source="155" target="186">
          <mxGeometry relative="1" as="geometry">
            <mxPoint x="1280" y="770" as="targetPoint" />
          </mxGeometry>
        </mxCell>
        <mxCell id="165" style="endArrow=block;edgeStyle=orthogonalEdgeStyle;dashed=1;strokeWidth=2;strokeColor=#808080;entryX=0;entryY=0.5;entryDx=0;entryDy=0;" edge="1" parent="1" source="156" target="186">
          <mxGeometry relative="1" as="geometry">
            <mxPoint x="1280" y="770" as="targetPoint" />
          </mxGeometry>
        </mxCell>
        <mxCell id="166" style="endArrow=block;edgeStyle=orthogonalEdgeStyle;entryX=0;entryY=0.5;entryDx=0;entryDy=0;dashed=1;strokeWidth=2;strokeColor=#808080;" edge="1" parent="1" source="157" target="186">
          <mxGeometry relative="1" as="geometry">
            <mxPoint x="1280" y="770" as="targetPoint" />
          </mxGeometry>
        </mxCell>
        <mxCell id="167" style="endArrow=block;edgeStyle=orthogonalEdgeStyle;entryX=0;entryY=0.5;entryDx=0;entryDy=0;dashed=1;strokeWidth=2;strokeColor=#808080;" edge="1" parent="1" source="158" target="186">
          <mxGeometry relative="1" as="geometry">
            <mxPoint x="1280" y="770" as="targetPoint" />
          </mxGeometry>
        </mxCell>
        <mxCell id="168" value="&lt;b&gt;&lt;font style=&quot;font-size: 18px;&quot;&gt;MySQL&lt;/font&gt;&lt;br&gt;&lt;/b&gt;&lt;font style=&quot;font-size: 14px;&quot;&gt;port:&amp;nbsp;&lt;b style=&quot;&quot;&gt;3306&lt;/b&gt;&lt;/font&gt;" style="shape=cylinder3;whiteSpace=wrap;html=1;boundedLbl=1;backgroundOutline=1;size=15;aspect=fixed;strokeColor=#66B2FF;strokeWidth=2;" vertex="1" parent="1">
          <mxGeometry x="120" y="120" width="90" height="120" as="geometry" />
        </mxCell>
        <mxCell id="169" style="endArrow=block;edgeStyle=orthogonalEdgeStyle;entryX=0;entryY=0.5;entryDx=0;entryDy=0;exitX=1;exitY=0.5;exitDx=0;exitDy=0;dashed=1;strokeWidth=2;strokeColor=#808080;" edge="1" parent="1" source="153" target="154">
          <mxGeometry relative="1" as="geometry">
            <mxPoint x="700" y="625" as="sourcePoint" />
            <mxPoint x="1090" y="220" as="targetPoint" />
          </mxGeometry>
        </mxCell>
        <mxCell id="170" style="edgeStyle=orthogonalEdgeStyle;rounded=0;orthogonalLoop=1;jettySize=auto;html=1;exitX=0.5;exitY=1;exitDx=0;exitDy=0;" edge="1" parent="1">
          <mxGeometry relative="1" as="geometry">
            <mxPoint x="910" y="312.5" as="sourcePoint" />
            <mxPoint x="910" y="312.5" as="targetPoint" />
          </mxGeometry>
        </mxCell>
        <mxCell id="171" style="edgeStyle=orthogonalEdgeStyle;rounded=1;orthogonalLoop=1;jettySize=auto;html=1;exitX=0.855;exitY=1;exitDx=0;exitDy=-4.35;exitPerimeter=0;entryX=1;entryY=0.5;entryDx=0;entryDy=0;dashed=1;curved=0;strokeWidth=2;strokeColor=#000000;" edge="1" parent="1" source="172" target="177">
          <mxGeometry relative="1" as="geometry">
            <Array as="points">
              <mxPoint x="680" y="308" />
              <mxPoint x="680" y="380" />
            </Array>
          </mxGeometry>
        </mxCell>
        <mxCell id="172" value="" style="shape=cylinder3;whiteSpace=wrap;html=1;boundedLbl=1;backgroundOutline=1;size=15;rotation=90;strokeColor=#7F00FF;strokeWidth=2;" vertex="1" parent="1">
          <mxGeometry x="817.5" y="162.5" width="120" height="240" as="geometry" />
        </mxCell>
        <mxCell id="173" style="edgeStyle=orthogonalEdgeStyle;rounded=0;orthogonalLoop=1;jettySize=auto;html=1;exitX=1;exitY=0.5;exitDx=0;exitDy=0;entryX=0.5;entryY=0;entryDx=0;entryDy=0;dashed=1;strokeWidth=2;strokeColor=#808080;" edge="1" parent="1" source="174" target="153">
          <mxGeometry relative="1" as="geometry" />
        </mxCell>
        <mxCell id="174" value="OpenTelemetry&lt;br&gt;Spring Boot Starter" style="rounded=1;whiteSpace=wrap;html=1;fontStyle=1;gradientColor=none;" vertex="1" parent="1">
          <mxGeometry x="340" y="200" width="160" height="30" as="geometry" />
        </mxCell>
        <mxCell id="175" value="&lt;b&gt;&lt;font style=&quot;font-size: 18px;&quot;&gt;product-service&lt;/font&gt;&lt;/b&gt;&lt;div&gt;&lt;blockquote style=&quot;margin: 0 0 0 40px; border: none; padding: 0px;&quot;&gt;&lt;blockquote style=&quot;margin: 0 0 0 40px; border: none; padding: 0px;&quot;&gt;&lt;div&gt;&lt;font style=&quot;font-size: 15px;&quot;&gt;port:&lt;/font&gt;&lt;font style=&quot;&quot;&gt;&lt;font style=&quot;font-size: 14px;&quot;&gt; &lt;/font&gt;&lt;b style=&quot;font-size: 15px;&quot;&gt;8081&lt;/b&gt;&lt;/font&gt;&lt;/div&gt;&lt;/blockquote&gt;&lt;/blockquote&gt;&lt;/div&gt;" style="text;html=1;align=left;verticalAlign=middle;whiteSpace=wrap;rounded=0;" vertex="1" parent="1">
          <mxGeometry x="340" y="130" width="160" height="70" as="geometry" />
        </mxCell>
        <mxCell id="176" style="edgeStyle=orthogonalEdgeStyle;rounded=0;orthogonalLoop=1;jettySize=auto;html=1;exitX=0.5;exitY=0;exitDx=0;exitDy=0;entryX=0.5;entryY=1;entryDx=0;entryDy=0;" edge="1" parent="1" source="177" target="152">
          <mxGeometry relative="1" as="geometry" />
        </mxCell>
        <mxCell id="177" value="" style="rounded=1;whiteSpace=wrap;html=1;labelPosition=center;verticalLabelPosition=middle;align=center;verticalAlign=middle;strokeColor=#00CC00;strokeWidth=2;" vertex="1" parent="1">
          <mxGeometry x="320" y="320" width="200" height="120" as="geometry" />
        </mxCell>
        <mxCell id="178" value="OpenTelemetry&lt;br&gt;Spring Boot Starter" style="rounded=1;whiteSpace=wrap;html=1;fontStyle=1" vertex="1" parent="1">
          <mxGeometry x="340" y="400" width="160" height="30" as="geometry" />
        </mxCell>
        <mxCell id="179" value="&lt;div style=&quot;text-align: center;&quot;&gt;&lt;b style=&quot;background-color: transparent; color: light-dark(rgb(0, 0, 0), rgb(255, 255, 255));&quot;&gt;&lt;font style=&quot;font-size: 18px;&quot;&gt;Kafka&lt;/font&gt;&lt;/b&gt;&lt;/div&gt;&lt;blockquote style=&quot;margin: 0 0 0 40px; border: none; padding: 0px;&quot;&gt;&lt;blockquote style=&quot;margin: 0 0 0 40px; border: none; padding: 0px;&quot;&gt;&lt;blockquote style=&quot;margin: 0 0 0 40px; border: none; padding: 0px;&quot;&gt;&lt;div&gt;&lt;font style=&quot;font-size: 14px;&quot;&gt;&lt;font style=&quot;&quot;&gt;Port: &lt;b&gt;9092&lt;/b&gt;&lt;/font&gt;&lt;/font&gt;&lt;/div&gt;&lt;/blockquote&gt;&lt;/blockquote&gt;&lt;blockquote style=&quot;margin: 0 0 0 40px; border: none; padding: 0px;&quot;&gt;&lt;blockquote style=&quot;margin: 0 0 0 40px; border: none; padding: 0px;&quot;&gt;&lt;div&gt;&lt;font style=&quot;font-size: 14px;&quot;&gt;&lt;font style=&quot;&quot;&gt;Port: &lt;b&gt;19092&lt;/b&gt;&lt;/font&gt;&lt;/font&gt;&lt;/div&gt;&lt;/blockquote&gt;&lt;/blockquote&gt;&lt;/blockquote&gt;" style="text;html=1;align=left;verticalAlign=middle;whiteSpace=wrap;rounded=0;" vertex="1" parent="1">
          <mxGeometry x="770" y="237.5" width="200" height="90" as="geometry" />
        </mxCell>
        <mxCell id="180" style="endArrow=block;entryX=0.25;entryY=0;entryDx=0;entryDy=0;edgeStyle=orthogonalEdgeStyle;exitX=1;exitY=0.5;exitDx=0;exitDy=0;dashed=1;strokeWidth=2;strokeColor=#808080;" edge="1" parent="1" source="178" target="153">
          <mxGeometry relative="1" as="geometry">
            <mxPoint x="500" y="450" as="sourcePoint" />
          </mxGeometry>
        </mxCell>
        <mxCell id="181" style="edgeStyle=orthogonalEdgeStyle;rounded=0;orthogonalLoop=1;jettySize=auto;html=1;exitX=0;exitY=0.5;exitDx=0;exitDy=0;entryX=1;entryY=0.5;entryDx=0;entryDy=0;entryPerimeter=0;dashed=1;strokeWidth=2;strokeColor=#000000;" edge="1" parent="1" source="152" target="168">
          <mxGeometry relative="1" as="geometry" />
        </mxCell>
        <mxCell id="182" value="&lt;font style=&quot;&quot;&gt;&lt;font style=&quot;font-size: 18px;&quot;&gt;&lt;b style=&quot;&quot;&gt;&lt;font style=&quot;&quot;&gt;MySQL&lt;/font&gt;&lt;/b&gt;&lt;br&gt;&lt;/font&gt;&lt;font style=&quot;font-size: 14px;&quot;&gt;port : &lt;b style=&quot;&quot;&gt;3306&lt;/b&gt;&lt;/font&gt;&lt;/font&gt;" style="shape=cylinder3;whiteSpace=wrap;html=1;boundedLbl=1;backgroundOutline=1;size=15;aspect=fixed;strokeColor=#66B2FF;strokeWidth=2;" vertex="1" parent="1">
          <mxGeometry x="120" y="320" width="90" height="120" as="geometry" />
        </mxCell>
        <mxCell id="183" style="edgeStyle=orthogonalEdgeStyle;rounded=0;orthogonalLoop=1;jettySize=auto;html=1;exitX=0;exitY=0.5;exitDx=0;exitDy=0;entryX=1;entryY=0.5;entryDx=0;entryDy=0;entryPerimeter=0;dashed=1;strokeWidth=2;strokeColor=#000000;" edge="1" parent="1" source="177" target="182">
          <mxGeometry relative="1" as="geometry" />
        </mxCell>
        <mxCell id="184" style="edgeStyle=orthogonalEdgeStyle;rounded=1;orthogonalLoop=1;jettySize=auto;html=1;exitX=1;exitY=0.5;exitDx=0;exitDy=0;dashed=1;strokeWidth=2;strokeColor=#000000;entryX=0.235;entryY=0.997;entryDx=0;entryDy=0;entryPerimeter=0;curved=0;" edge="1" parent="1" source="152" target="172">
          <mxGeometry relative="1" as="geometry">
            <mxPoint x="720" y="210" as="targetPoint" />
            <Array as="points">
              <mxPoint x="680" y="180" />
              <mxPoint x="680" y="250" />
              <mxPoint x="758" y="250" />
            </Array>
          </mxGeometry>
        </mxCell>
        <mxCell id="185" value="&lt;b&gt;&lt;font style=&quot;font-size: 18px;&quot;&gt;order-service&lt;/font&gt;&lt;/b&gt;&lt;blockquote style=&quot;margin: 0 0 0 40px; border: none; padding: 0px;&quot;&gt;&lt;blockquote style=&quot;margin: 0 0 0 40px; border: none; padding: 0px;&quot;&gt;&lt;div&gt;&lt;font style=&quot;font-size: 15px;&quot;&gt;port:&lt;/font&gt;&lt;font style=&quot;&quot;&gt;&lt;font style=&quot;font-size: 14px;&quot;&gt; &lt;/font&gt;&lt;b style=&quot;font-size: 15px;&quot;&gt;8082&lt;/b&gt;&lt;/font&gt;&lt;/div&gt;&lt;/blockquote&gt;&lt;/blockquote&gt;" style="text;html=1;align=left;verticalAlign=middle;whiteSpace=wrap;rounded=0;" vertex="1" parent="1">
          <mxGeometry x="340" y="330" width="160" height="70" as="geometry" />
        </mxCell>
        <mxCell id="186" value="&lt;b&gt;&lt;font style=&quot;font-size: 18px;&quot;&gt;Grafana&lt;/font&gt;&lt;/b&gt;&lt;div&gt;&lt;blockquote style=&quot;margin: 0 0 0 40px; border: none; padding: 0px;&quot;&gt;&lt;blockquote style=&quot;margin: 0 0 0 40px; border: none; padding: 0px;&quot;&gt;&lt;blockquote style=&quot;margin: 0 0 0 40px; border: none; padding: 0px;&quot;&gt;&lt;div&gt;&lt;div&gt;&lt;font style=&quot;font-size: 14px;&quot;&gt;port: &lt;b style=&quot;&quot;&gt;3000&lt;/b&gt;&lt;/font&gt;&lt;/div&gt;&lt;/div&gt;&lt;/blockquote&gt;&lt;/blockquote&gt;&lt;/blockquote&gt;&lt;div&gt;&lt;div&gt;&lt;br&gt;&lt;font style=&quot;font-size: 14px;&quot;&gt;&lt;b style=&quot;&quot;&gt;Visualization collected data&lt;/b&gt;&lt;/font&gt;&lt;/div&gt;&lt;/div&gt;&lt;/div&gt;" style="rounded=1;whiteSpace=wrap;html=1;strokeColor=#FFD966;strokeWidth=2;" vertex="1" parent="1">
          <mxGeometry x="1280" y="720" width="240" height="100" as="geometry" />
        </mxCell>
      </root>
    </mxGraphModel>
  </diagram>
</mxfile>
